<?xml version="1.0" encoding="UTF-8"?>
<svg width="96.818mm" height="74.669mm" version="1.1" viewBox="0 0 96.818 74.669" xmlns="http://www.w3.org/2000/svg">
<defs>
<filter id="a" x="-.034105" y="-.055338" width="1.0682" height="1.1107" color-interpolation-filters="sRGB">
<feGaussianBlur stdDeviation="1.5200808"/>
</filter>
<filter id="c" x="-.034105" y="-.055338" width="1.0682" height="1.1107" color-interpolation-filters="sRGB">
<feGaussianBlur stdDeviation="1.5200808"/>
</filter>
<filter id="b" x="-.034105" y="-.055338" width="1.0682" height="1.1107" color-interpolation-filters="sRGB">
<feGaussianBlur stdDeviation="1.5200808"/>
</filter>
</defs>
<g transform="translate(-7.9555 -2.7315)">
<g transform="matrix(.83235 0 0 .86562 191.81 .42267)">
<g transform="translate(-187.58 -54.345)">
<g transform="translate(19.233 26.352)">
<path d="m-17.182 53.576a35.444 15.929 0 0 1-4.13e-4 0.07688" fill="#0ff" stroke-width=".26458"/>
<path d="m1.6994 109.24a35.265 17.006 0 0 1-4.107e-4 0.0821" fill="none" stroke-width=".26458"/>
<g transform="matrix(1.0112 0 0 1.0112 -148.5 -13.395)" fill="#f0f" filter="url(#a)" style="mix-blend-mode:normal">
<path d="m142.41 71.606h18.05c12.372 0 22.332 8.6309 22.332 19.352 0 10.721-9.96 19.352-22.332 19.352h-18.05c-12.372 0-22.332-8.6309-22.332-19.352 0-10.721 9.96-19.352 22.332-19.352z" stroke-width=".23868"/>
<path d="m131.19 94.696-6.7662 0.20878 1.7093 14.709 0.4521 3.8901h0.11665c0.36926 1.0143 1.2246 1.7219 2.226 1.7219h3.6374c0.98302 0 1.825-0.68193 2.2049-1.6664h0.0872l0.0525-0.46446 2.4e-4 -1e-3c0.0464-0.21276 0.0719-0.43559 0.0751-0.66487l0.32357-2.8638 1.6737-14.813-3.3832 0.10439-2.4358 0.07509z" stroke-width=".063669"/>
<path d="m171.1 96.781-7.2421 0.18648 1.8295 13.137 0.48389 3.4745h0.12486c0.39523 0.90592 1.3107 1.5379 2.3826 1.5379h3.8933c1.0522 0 1.9533-0.60906 2.36-1.4883h0.0933l0.0562-0.41484 2.4e-4 -1e-3c0.0496-0.19001 0.077-0.38904 0.0804-0.59382l0.34633-2.5578 1.7914-13.23-3.6212 0.09324-2.6071 0.06706z" stroke-width=".062252"/>
<path d="m142.86 105.03-6.84 0.1022 1.7279 7.1994 0.45703 1.9041h0.11791c0.37329 0.49647 1.2379 0.84282 2.2503 0.84282h3.6771c0.99373 0 1.8448-0.33378 2.2289-0.81563h0.0881l0.0531-0.22734 2.3e-4 -6.6e-4c0.0469-0.10414 0.0727-0.21321 0.0759-0.32544l0.32709-1.4017 1.6919-7.2506-5.8825 0.0879z" stroke-width=".044786"/>
<path d="m159.59 105.04-6.8569 0.1022 1.7322 7.1994 0.45816 1.9041h0.1182c0.37422 0.49647 1.241 0.84281 2.2559 0.84281h3.6862c0.99619 0 1.8494-0.33378 2.2344-0.81562h0.0884l0.0532-0.22734 2.3e-4 -6.6e-4c0.047-0.10414 0.0728-0.21321 0.0761-0.32544l0.32791-1.4017 1.6961-7.2506-3.4286 0.0511-2.4684 0.0367z" stroke-width=".044842"/>
<path d="m123.18 81.388c-8.4727 2.2541-11.779 7.081-13.01 11.139 1.8422 0.48931 3.4753 1.2713 4.7758 2.2934 0.75806-2.4189 2.3066-5.0292 5.304-7.2586 1.6629-1.2369 3.1658-2.0335 4.4666-2.5575-0.66671-0.93411-1.1646-1.9989-1.4412-3.1629-0.036-0.1515-0.0678-0.30272-0.0955-0.45381z" stroke-width=".19653"/>
<path d="m113.57 89.733c1.0419 0.37568 1.8863 1.2015 2.3923 2.2759 0.6747 1.4323 0.66469 3.2198-0.28873 4.6349-2.1129 3.1359-5.1697 5.0246-8.4114 5.4982-2.8656 0.41857-5.9169-0.25513-8.7234-2.303 2.6101 0.49009 5.9788-1.1071 6.9937-2.8213-1.6118 0.76842-3.448 1.347-5.2117 1.4814 1.9482-1.6633 2.8447-3.7222 3.8309-5.335 0.70671-1.1558 1.446-2.0867 2.6299-2.7306 1.1838-0.644 2.8934-1.0476 5.6858-0.9186a2.9663 3.3961 85.324 0 1 1.1026 0.21822z" stroke-width=".10218"/>
<path d="m146.19 49.403c1.8838 1.6966 1.4466 3.5719-0.45671 5.2337l-1.4016 1.8139c-0.0723 0.04121-0.14454 0.0793-0.21507 0.11156-0.42703 0.45008-0.79213 0.92952-1.0851 1.4334l-0.10316 0.11191a3.6398 6.608 89.562 0 0 0.0329 0.01469c-0.12622 0.22804-0.23795 0.46095-0.33467 0.69801-0.0118 0.02274-0.0241 0.04535-0.0357 0.06819l-0.10316 0.12869a4.1818 6.6081 89.416 0 0 0.0332 0.01679c-0.49943 1.0367-0.77425 2.1587-0.77425 3.3323 0 5.285 5.5276 9.54 12.394 9.54h9.0133c6.3706 0 11.588-3.6628 12.308-8.4129-9e-3 -3.4e-4 -0.0184-0.0011-0.0276-0.0014 0.2208-0.47877 0.37909-0.97628 0.46826-1.4883-0.0623-2e-3 -0.12456-0.0034-0.18709-0.0077l-18.413-1.1369c-2.8378-0.1752-4.8933-2.1046-4.6084-4.3259l0.28536-2.2255c0.70034-2.3957-2.4287-4.1822-6.7892-4.9046z" stroke-width=".022593"/>
<path d="m201.07 49.3c-1.8838 1.6966-1.4466 3.5719 0.45671 5.2337l1.4016 1.8139c0.0723 0.04121 0.14454 0.0793 0.21507 0.11156 0.42703 0.45008 0.79213 0.92952 1.0851 1.4334l0.10316 0.11191a6.608 3.6398 0.43765 0 1-0.0329 0.01469c0.12623 0.22804 0.23796 0.46095 0.33467 0.69801 0.0118 0.02274 0.0241 0.04535 0.0357 0.06819l0.10316 0.12869a6.6081 4.1818 0.58427 0 1-0.0332 0.01679c0.49943 1.0367 0.77425 2.1587 0.77425 3.3323 0 5.285-5.5276 9.54-12.394 9.54h-9.0133c-6.3706 0-11.588-3.6628-12.308-8.4129 9e-3 -3.41e-4 0.0184-0.0011 0.0276-0.0014-0.2208-0.47877-0.37908-0.97628-0.46825-1.4883 0.0622-2e-3 0.12456-0.0034 0.18709-0.0077l18.413-1.1369c2.8378-0.1752 4.8933-2.1046 4.6084-4.3259l-0.28536-2.2255c-0.70035-2.3958 2.4287-4.1822 6.7892-4.9046z" stroke-width=".022593"/>
<path d="m156.59 60.967h33.572c3.749 0 6.7672 1.8199 6.7672 4.0805 0 2.2606-3.0182 4.0805-6.7672 4.0805h-33.572c-3.749 0-6.7672-1.8199-6.7672-4.0805 0-2.2606 3.0182-4.0805 6.7672-4.0805z" stroke-width=".088753"/>
<path d="m167.34 60.107h12.652c9.9867 0 18.027 6.9542 18.027 15.592 0 8.6381-8.0398 15.592-18.027 15.592h-12.652c-9.9867 0-18.027-6.9542-18.027-15.592 0-8.6381 8.0398-15.592 18.027-15.592z" stroke-width=".18881"/>
<path d="m153.6 77.536c-0.13917 6.76e-4 -0.23848 0.04216-0.28292 0.178l-6.6798 24.063c-0.0724 0.23439 0.7965 0.12702 1.1205 0.18185l1.7223 0.0182c0.32395 0.0524 1.7552-3e-3 1.8311-0.2343l6.5165-24.002c0.0724-0.23439-0.58143-0.04101-0.9054-0.09582l-1.4366-0.06436-1.5363-0.0034c-0.12018-0.01962-0.2286-0.03763-0.32103-0.04054v-3.52e-4c-0.01-2.98e-4 -0.019-3.99e-4 -0.0284-3.52e-4zm3.7779 2.997 0.0185 0.0182v-0.0182zm-11.299 0.26298-11.934 7.3746v4.6763l11.934 7.3749v-5.5271l-7.2529-4.1723 7.2529-4.1671zm12.033 0.17555v5.4477l7.2526 4.1671-7.2526 4.1727v5.5268l11.933-7.3749v-4.6763l-11.753-7.263z" stroke-width=".29315"/>
<path d="m196.35 52.643a2.2978 2.4813 0 0 1-2e-5 0.01197l-2.2978-0.01197z" stroke-width=".17905"/>
</g>
<g transform="matrix(1.0112 0 0 1.0112 -147.72 -15.502)" fill="#f0f" filter="url(#c)" style="mix-blend-mode:normal">
<path d="m142.41 71.606h18.05c12.372 0 22.332 8.6309 22.332 19.352 0 10.721-9.96 19.352-22.332 19.352h-18.05c-12.372 0-22.332-8.6309-22.332-19.352 0-10.721 9.96-19.352 22.332-19.352z" stroke-width=".23868"/>
<path d="m131.19 94.696-6.7662 0.20878 1.7093 14.709 0.4521 3.8901h0.11665c0.36926 1.0143 1.2246 1.7219 2.226 1.7219h3.6374c0.98302 0 1.825-0.68193 2.2049-1.6664h0.0872l0.0525-0.46446 2.4e-4 -1e-3c0.0464-0.21276 0.0719-0.43559 0.0751-0.66487l0.32357-2.8638 1.6737-14.813-3.3832 0.10439-2.4358 0.07509z" stroke-width=".063669"/>
<path d="m171.1 96.781-7.2421 0.18648 1.8295 13.137 0.48389 3.4745h0.12486c0.39523 0.90592 1.3107 1.5379 2.3826 1.5379h3.8933c1.0522 0 1.9533-0.60906 2.36-1.4883h0.0933l0.0562-0.41484 2.4e-4 -1e-3c0.0496-0.19001 0.077-0.38904 0.0804-0.59382l0.34633-2.5578 1.7914-13.23-3.6212 0.09324-2.6071 0.06706z" stroke-width=".062252"/>
<path d="m142.86 105.03-6.84 0.1022 1.7279 7.1994 0.45703 1.9041h0.11791c0.37329 0.49647 1.2379 0.84282 2.2503 0.84282h3.6771c0.99373 0 1.8448-0.33378 2.2289-0.81563h0.0881l0.0531-0.22734 2.3e-4 -6.6e-4c0.0469-0.10414 0.0727-0.21321 0.0759-0.32544l0.32709-1.4017 1.6919-7.2506-5.8825 0.0879z" stroke-width=".044786"/>
<path d="m159.59 105.04-6.8569 0.1022 1.7322 7.1994 0.45816 1.9041h0.1182c0.37422 0.49647 1.241 0.84281 2.2559 0.84281h3.6862c0.99619 0 1.8494-0.33378 2.2344-0.81562h0.0884l0.0532-0.22734 2.3e-4 -6.6e-4c0.047-0.10414 0.0728-0.21321 0.0761-0.32544l0.32791-1.4017 1.6961-7.2506-3.4286 0.0511-2.4684 0.0367z" stroke-width=".044842"/>
<path d="m123.18 81.388c-8.4727 2.2541-11.779 7.081-13.01 11.139 1.8422 0.48931 3.4753 1.2713 4.7758 2.2934 0.75806-2.4189 2.3066-5.0292 5.304-7.2586 1.6629-1.2369 3.1658-2.0335 4.4666-2.5575-0.66671-0.93411-1.1646-1.9989-1.4412-3.1629-0.036-0.1515-0.0678-0.30272-0.0955-0.45381z" stroke-width=".19653"/>
<path d="m113.57 89.733c1.0419 0.37568 1.8863 1.2015 2.3923 2.2759 0.6747 1.4323 0.66469 3.2198-0.28873 4.6349-2.1129 3.1359-5.1697 5.0246-8.4114 5.4982-2.8656 0.41857-5.9169-0.25513-8.7234-2.303 2.6101 0.49009 5.9788-1.1071 6.9937-2.8213-1.6118 0.76842-3.448 1.347-5.2117 1.4814 1.9482-1.6633 2.8447-3.7222 3.8309-5.335 0.70671-1.1558 1.446-2.0867 2.6299-2.7306 1.1838-0.644 2.8934-1.0476 5.6858-0.9186a2.9663 3.3961 85.324 0 1 1.1026 0.21822z" stroke-width=".10218"/>
<path d="m146.19 49.403c1.8838 1.6966 1.4466 3.5719-0.45671 5.2337l-1.4016 1.8139c-0.0723 0.04121-0.14454 0.0793-0.21507 0.11156-0.42703 0.45008-0.79213 0.92952-1.0851 1.4334l-0.10316 0.11191a3.6398 6.608 89.562 0 0 0.0329 0.01469c-0.12622 0.22804-0.23795 0.46095-0.33467 0.69801-0.0118 0.02274-0.0241 0.04535-0.0357 0.06819l-0.10316 0.12869a4.1818 6.6081 89.416 0 0 0.0332 0.01679c-0.49943 1.0367-0.77425 2.1587-0.77425 3.3323 0 5.285 5.5276 9.54 12.394 9.54h9.0133c6.3706 0 11.588-3.6628 12.308-8.4129-9e-3 -3.4e-4 -0.0184-0.0011-0.0276-0.0014 0.2208-0.47877 0.37909-0.97628 0.46826-1.4883-0.0623-2e-3 -0.12456-0.0034-0.18709-0.0077l-18.413-1.1369c-2.8378-0.1752-4.8933-2.1046-4.6084-4.3259l0.28536-2.2255c0.70034-2.3957-2.4287-4.1822-6.7892-4.9046z" stroke-width=".022593"/>
<path d="m201.07 49.3c-1.8838 1.6966-1.4466 3.5719 0.45671 5.2337l1.4016 1.8139c0.0723 0.04121 0.14454 0.0793 0.21507 0.11156 0.42703 0.45008 0.79213 0.92952 1.0851 1.4334l0.10316 0.11191a6.608 3.6398 0.43765 0 1-0.0329 0.01469c0.12623 0.22804 0.23796 0.46095 0.33467 0.69801 0.0118 0.02274 0.0241 0.04535 0.0357 0.06819l0.10316 0.12869a6.6081 4.1818 0.58427 0 1-0.0332 0.01679c0.49943 1.0367 0.77425 2.1587 0.77425 3.3323 0 5.285-5.5276 9.54-12.394 9.54h-9.0133c-6.3706 0-11.588-3.6628-12.308-8.4129 9e-3 -3.41e-4 0.0184-0.0011 0.0276-0.0014-0.2208-0.47877-0.37908-0.97628-0.46825-1.4883 0.0622-2e-3 0.12456-0.0034 0.18709-0.0077l18.413-1.1369c2.8378-0.1752 4.8933-2.1046 4.6084-4.3259l-0.28536-2.2255c-0.70035-2.3958 2.4287-4.1822 6.7892-4.9046z" stroke-width=".022593"/>
<path d="m156.59 60.967h33.572c3.749 0 6.7672 1.8199 6.7672 4.0805 0 2.2606-3.0182 4.0805-6.7672 4.0805h-33.572c-3.749 0-6.7672-1.8199-6.7672-4.0805 0-2.2606 3.0182-4.0805 6.7672-4.0805z" stroke-width=".088753"/>
<path d="m167.34 60.107h12.652c9.9867 0 18.027 6.9542 18.027 15.592 0 8.6381-8.0398 15.592-18.027 15.592h-12.652c-9.9867 0-18.027-6.9542-18.027-15.592 0-8.6381 8.0398-15.592 18.027-15.592z" stroke-width=".18881"/>
<path d="m153.6 77.536c-0.13917 6.76e-4 -0.23848 0.04216-0.28292 0.178l-6.6798 24.063c-0.0724 0.23439 0.7965 0.12702 1.1205 0.18185l1.7223 0.0182c0.32395 0.0524 1.7552-3e-3 1.8311-0.2343l6.5165-24.002c0.0724-0.23439-0.58143-0.04101-0.9054-0.09582l-1.4366-0.06436-1.5363-0.0034c-0.12018-0.01962-0.2286-0.03763-0.32103-0.04054v-3.52e-4c-0.01-2.98e-4 -0.019-3.99e-4 -0.0284-3.52e-4zm3.7779 2.997 0.0185 0.0182v-0.0182zm-11.299 0.26298-11.934 7.3746v4.6763l11.934 7.3749v-5.5271l-7.2529-4.1723 7.2529-4.1671zm12.033 0.17555v5.4477l7.2526 4.1671-7.2526 4.1727v5.5268l11.933-7.3749v-4.6763l-11.753-7.263z" stroke-width=".29315"/>
<path d="m196.35 52.643a2.2978 2.4813 0 0 1-2e-5 0.01197l-2.2978-0.01197z" stroke-width=".17905"/>
</g>
<g transform="matrix(1.0112 0 0 1.0112 -148.24 -14.303)" fill="#f0f" filter="url(#b)" style="mix-blend-mode:normal">
<path d="m142.41 71.606h18.05c12.372 0 22.332 8.6309 22.332 19.352 0 10.721-9.96 19.352-22.332 19.352h-18.05c-12.372 0-22.332-8.6309-22.332-19.352 0-10.721 9.96-19.352 22.332-19.352z" stroke-width=".23868"/>
<path d="m131.19 94.696-6.7662 0.20878 1.7093 14.709 0.4521 3.8901h0.11665c0.36926 1.0143 1.2246 1.7219 2.226 1.7219h3.6374c0.98302 0 1.825-0.68193 2.2049-1.6664h0.0872l0.0525-0.46446 2.4e-4 -1e-3c0.0464-0.21276 0.0719-0.43559 0.0751-0.66487l0.32357-2.8638 1.6737-14.813-3.3832 0.10439-2.4358 0.07509z" stroke-width=".063669"/>
<path d="m171.1 96.781-7.2421 0.18648 1.8295 13.137 0.48389 3.4745h0.12486c0.39523 0.90592 1.3107 1.5379 2.3826 1.5379h3.8933c1.0522 0 1.9533-0.60906 2.36-1.4883h0.0933l0.0562-0.41484 2.4e-4 -1e-3c0.0496-0.19001 0.077-0.38904 0.0804-0.59382l0.34633-2.5578 1.7914-13.23-3.6212 0.09324-2.6071 0.06706z" stroke-width=".062252"/>
<path d="m142.86 105.03-6.84 0.1022 1.7279 7.1994 0.45703 1.9041h0.11791c0.37329 0.49647 1.2379 0.84282 2.2503 0.84282h3.6771c0.99373 0 1.8448-0.33378 2.2289-0.81563h0.0881l0.0531-0.22734 2.3e-4 -6.6e-4c0.0469-0.10414 0.0727-0.21321 0.0759-0.32544l0.32709-1.4017 1.6919-7.2506-5.8825 0.0879z" stroke-width=".044786"/>
<path d="m159.59 105.04-6.8569 0.1022 1.7322 7.1994 0.45816 1.9041h0.1182c0.37422 0.49647 1.241 0.84281 2.2559 0.84281h3.6862c0.99619 0 1.8494-0.33378 2.2344-0.81562h0.0884l0.0532-0.22734 2.3e-4 -6.6e-4c0.047-0.10414 0.0728-0.21321 0.0761-0.32544l0.32791-1.4017 1.6961-7.2506-3.4286 0.0511-2.4684 0.0367z" stroke-width=".044842"/>
<path d="m123.18 81.388c-8.4727 2.2541-11.779 7.081-13.01 11.139 1.8422 0.48931 3.4753 1.2713 4.7758 2.2934 0.75806-2.4189 2.3066-5.0292 5.304-7.2586 1.6629-1.2369 3.1658-2.0335 4.4666-2.5575-0.66671-0.93411-1.1646-1.9989-1.4412-3.1629-0.036-0.1515-0.0678-0.30272-0.0955-0.45381z" stroke-width=".19653"/>
<path d="m113.57 89.733c1.0419 0.37568 1.8863 1.2015 2.3923 2.2759 0.6747 1.4323 0.66469 3.2198-0.28873 4.6349-2.1129 3.1359-5.1697 5.0246-8.4114 5.4982-2.8656 0.41857-5.9169-0.25513-8.7234-2.303 2.6101 0.49009 5.9788-1.1071 6.9937-2.8213-1.6118 0.76842-3.448 1.347-5.2117 1.4814 1.9482-1.6633 2.8447-3.7222 3.8309-5.335 0.70671-1.1558 1.446-2.0867 2.6299-2.7306 1.1838-0.644 2.8934-1.0476 5.6858-0.9186a2.9663 3.3961 85.324 0 1 1.1026 0.21822z" stroke-width=".10218"/>
<path d="m146.19 49.403c1.8838 1.6966 1.4466 3.5719-0.45671 5.2337l-1.4016 1.8139c-0.0723 0.04121-0.14454 0.0793-0.21507 0.11156-0.42703 0.45008-0.79213 0.92952-1.0851 1.4334l-0.10316 0.11191a3.6398 6.608 89.562 0 0 0.0329 0.01469c-0.12622 0.22804-0.23795 0.46095-0.33467 0.69801-0.0118 0.02274-0.0241 0.04535-0.0357 0.06819l-0.10316 0.12869a4.1818 6.6081 89.416 0 0 0.0332 0.01679c-0.49943 1.0367-0.77425 2.1587-0.77425 3.3323 0 5.285 5.5276 9.54 12.394 9.54h9.0133c6.3706 0 11.588-3.6628 12.308-8.4129-9e-3 -3.4e-4 -0.0184-0.0011-0.0276-0.0014 0.2208-0.47877 0.37909-0.97628 0.46826-1.4883-0.0623-2e-3 -0.12456-0.0034-0.18709-0.0077l-18.413-1.1369c-2.8378-0.1752-4.8933-2.1046-4.6084-4.3259l0.28536-2.2255c0.70034-2.3957-2.4287-4.1822-6.7892-4.9046z" stroke-width=".022593"/>
<path d="m201.07 49.3c-1.8838 1.6966-1.4466 3.5719 0.45671 5.2337l1.4016 1.8139c0.0723 0.04121 0.14454 0.0793 0.21507 0.11156 0.42703 0.45008 0.79213 0.92952 1.0851 1.4334l0.10316 0.11191a6.608 3.6398 0.43765 0 1-0.0329 0.01469c0.12623 0.22804 0.23796 0.46095 0.33467 0.69801 0.0118 0.02274 0.0241 0.04535 0.0357 0.06819l0.10316 0.12869a6.6081 4.1818 0.58427 0 1-0.0332 0.01679c0.49943 1.0367 0.77425 2.1587 0.77425 3.3323 0 5.285-5.5276 9.54-12.394 9.54h-9.0133c-6.3706 0-11.588-3.6628-12.308-8.4129 9e-3 -3.41e-4 0.0184-0.0011 0.0276-0.0014-0.2208-0.47877-0.37908-0.97628-0.46825-1.4883 0.0622-2e-3 0.12456-0.0034 0.18709-0.0077l18.413-1.1369c2.8378-0.1752 4.8933-2.1046 4.6084-4.3259l-0.28536-2.2255c-0.70035-2.3958 2.4287-4.1822 6.7892-4.9046z" stroke-width=".022593"/>
<path d="m156.59 60.967h33.572c3.749 0 6.7672 1.8199 6.7672 4.0805 0 2.2606-3.0182 4.0805-6.7672 4.0805h-33.572c-3.749 0-6.7672-1.8199-6.7672-4.0805 0-2.2606 3.0182-4.0805 6.7672-4.0805z" stroke-width=".088753"/>
<path d="m167.34 60.107h12.652c9.9867 0 18.027 6.9542 18.027 15.592 0 8.6381-8.0398 15.592-18.027 15.592h-12.652c-9.9867 0-18.027-6.9542-18.027-15.592 0-8.6381 8.0398-15.592 18.027-15.592z" stroke-width=".18881"/>
<path d="m153.6 77.536c-0.13917 6.76e-4 -0.23848 0.04216-0.28292 0.178l-6.6798 24.063c-0.0724 0.23439 0.7965 0.12702 1.1205 0.18185l1.7223 0.0182c0.32395 0.0524 1.7552-3e-3 1.8311-0.2343l6.5165-24.002c0.0724-0.23439-0.58143-0.04101-0.9054-0.09582l-1.4366-0.06436-1.5363-0.0034c-0.12018-0.01962-0.2286-0.03763-0.32103-0.04054v-3.52e-4c-0.01-2.98e-4 -0.019-3.99e-4 -0.0284-3.52e-4zm3.7779 2.997 0.0185 0.0182v-0.0182zm-11.299 0.26298-11.934 7.3746v4.6763l11.934 7.3749v-5.5271l-7.2529-4.1723 7.2529-4.1671zm12.033 0.17555v5.4477l7.2526 4.1671-7.2526 4.1727v5.5268l11.933-7.3749v-4.6763l-11.753-7.263z" stroke-width=".29315"/>
<path d="m196.35 52.643a2.2978 2.4813 0 0 1-2e-5 0.01197l-2.2978-0.01197z" stroke-width=".17905"/>
</g>
<path d="m-4.0103 58.23h18.05c12.372 0 22.332 8.6309 22.332 19.352 0 10.721-9.96 19.352-22.332 19.352h-18.05c-12.372 0-22.332-8.6309-22.332-19.352 0-10.721 9.96-19.352 22.332-19.352z" stroke-width=".23868"/>
<path d="m-15.224 81.32-6.7662 0.20878 1.7093 14.709 0.4521 3.8901h0.11665c0.36926 1.0143 1.2246 1.7219 2.226 1.7219h3.6374c0.98302 0 1.825-0.68193 2.2049-1.6664h0.0872l0.0525-0.46446 2.4e-4 -1e-3c0.0464-0.21276 0.0719-0.4356 0.0751-0.66487l0.32357-2.8638 1.6737-14.813-3.3832 0.10439-2.4358 0.07509z" stroke-width=".063669"/>
<path d="m24.681 83.406-7.2421 0.18648 1.8295 13.137 0.48389 3.4745h0.12486c0.39523 0.90592 1.3107 1.5379 2.3826 1.5379h3.8933c1.0522 0 1.9533-0.60906 2.36-1.4883h0.0933l0.0562-0.41484 2.4e-4 -1e-3c0.0496-0.19001 0.077-0.38904 0.0804-0.59382l0.34633-2.5578 1.7914-13.23-3.6212 0.09324-2.6071 0.06706z" stroke-width=".062252"/>
<path d="m-3.558 91.65-6.84 0.1022 1.7279 7.1994 0.45703 1.9041h0.11791c0.37329 0.49647 1.2379 0.84282 2.2503 0.84282h3.6771c0.99373 0 1.8448-0.33378 2.2289-0.81563h0.0881l0.0531-0.22734 2.3e-4 -6.6e-4c0.0469-0.10414 0.0727-0.21321 0.0759-0.32544l0.32709-1.4017 1.6919-7.2506-5.8825 0.0879z" stroke-width=".044786"/>
<path d="m13.169 91.668-6.8569 0.1022 1.7322 7.1994 0.45816 1.9041h0.1182c0.37422 0.49647 1.241 0.84281 2.2559 0.84281h3.6862c0.99619 0 1.8494-0.33378 2.2344-0.81562h0.0884l0.0532-0.22734 2.3e-4 -6.6e-4c0.047-0.10414 0.0728-0.21321 0.0761-0.32544l0.32791-1.4017 1.6961-7.2506-3.4286 0.0511-2.4684 0.0367z" stroke-width=".044842"/>
<path d="m-23.238 68.012c-8.4727 2.2541-11.779 7.081-13.01 11.139 1.8422 0.48931 3.4753 1.2713 4.7758 2.2934 0.75806-2.4189 2.3066-5.0292 5.304-7.2586 1.6629-1.2369 3.1658-2.0335 4.4666-2.5575-0.66671-0.93411-1.1646-1.9989-1.4412-3.1629-0.036-0.1515-0.0678-0.30272-0.0955-0.45381z" stroke-width=".19653"/>
<path d="m-32.843 76.357c1.0419 0.37568 1.8863 1.2015 2.3923 2.2759 0.6747 1.4323 0.66469 3.2198-0.28873 4.6349-2.1129 3.1359-5.1697 5.0246-8.4114 5.4982-2.8656 0.41857-5.9169-0.25513-8.7234-2.303 2.61 0.49009 5.9788-1.1071 6.9937-2.8213-1.6118 0.76842-3.448 1.347-5.2117 1.4814 1.9482-1.6633 2.8447-3.7222 3.8309-5.335 0.70671-1.1558 1.446-2.0867 2.6299-2.7306 1.1838-0.644 2.8934-1.0476 5.6858-0.9186a2.9663 3.3961 85.324 0 1 1.1026 0.21822z" fill="#800080" stroke="#000" stroke-width=".15"/>
<path d="m-0.23056 36.027c1.8838 1.6966 1.4466 3.5719-0.45671 5.2337l-1.4016 1.8139c-0.0723 0.04121-0.14454 0.0793-0.21507 0.11156-0.42703 0.45008-0.79213 0.92952-1.0851 1.4334l-0.10316 0.11191a3.6398 6.608 89.562 0 0 0.0329 0.01469c-0.12622 0.22804-0.23795 0.46095-0.33467 0.69801-0.0118 0.02274-0.0241 0.04535-0.0357 0.06819l-0.10316 0.12869a4.1818 6.6081 89.416 0 0 0.0332 0.01679c-0.49943 1.0367-0.77425 2.1587-0.77425 3.3323 0 5.285 5.5276 9.54 12.394 9.54h9.0133c6.3706 0 11.588-3.6628 12.308-8.4129-9e-3 -3.4e-4 -0.0184-0.0011-0.0276-0.0014 0.2208-0.47877 0.37909-0.97628 0.46826-1.4883-0.0623-2e-3 -0.12456-0.0034-0.18709-0.0077l-18.413-1.1369c-2.8378-0.1752-4.8933-2.1046-4.6084-4.3259l0.28536-2.2255c0.70034-2.3957-2.4287-4.1822-6.7892-4.9046z" fill="#800080" stroke="#000" stroke-width=".15"/>
<path d="m54.652 35.924c-1.8838 1.6966-1.4466 3.5719 0.45671 5.2337l1.4016 1.8139c0.0723 0.04121 0.14454 0.0793 0.21507 0.11156 0.42703 0.45008 0.79213 0.92952 1.0851 1.4334l0.10316 0.11191a6.608 3.6398 0.43765 0 1-0.0329 0.01469c0.12623 0.22804 0.23796 0.46095 0.33467 0.69801 0.0118 0.02274 0.0241 0.04535 0.0357 0.06819l0.10316 0.12869a6.6081 4.1818 0.58427 0 1-0.0332 0.01679c0.49943 1.0367 0.77425 2.1587 0.77425 3.3323 0 5.285-5.5276 9.54-12.394 9.54h-9.0133c-6.3706 0-11.588-3.6628-12.308-8.4129 9e-3 -3.41e-4 0.0184-0.0011 0.0276-0.0014-0.2208-0.47877-0.37908-0.97628-0.46825-1.4883 0.0622-2e-3 0.12456-0.0034 0.18709-0.0077l18.413-1.1369c2.8378-0.1752 4.8933-2.1046 4.6084-4.3259l-0.28536-2.2255c-0.70035-2.3958 2.4287-4.1822 6.7892-4.9046z" fill="#800080" stroke="#000" stroke-width=".15"/>
<path d="m10.169 47.591h33.572c3.749 0 6.7672 1.8199 6.7672 4.0805 0 2.2606-3.0182 4.0805-6.7672 4.0805h-33.572c-3.749 0-6.7672-1.8199-6.7672-4.0805 0-2.2606 3.0182-4.0805 6.7672-4.0805z" fill="#800080" stroke-width=".088753"/>
<path d="m20.927 46.731h12.652c9.9867 0 18.027 6.9542 18.027 15.592 0 8.6381-8.0398 15.592-18.027 15.592h-12.652c-9.9867 0-18.027-6.9542-18.027-15.592 0-8.6381 8.0398-15.592 18.027-15.592z" stroke-width=".18881"/>
<path d="m7.1842 64.161c-0.13917 6.76e-4 -0.23848 0.04216-0.28292 0.178l-6.6798 24.063c-0.0724 0.23439 0.7965 0.12702 1.1205 0.18185l1.7223 0.0182c0.32395 0.0524 1.7552-3e-3 1.8311-0.2343l6.5165-24.002c0.0724-0.23439-0.58143-0.04101-0.9054-0.09582l-1.4366-0.06436-1.5363-0.0034c-0.12018-0.01962-0.2286-0.03763-0.32103-0.04054v-3.52e-4c-0.01-2.98e-4 -0.019-3.99e-4 -0.0284-3.52e-4zm3.7779 2.997 0.0185 0.0182v-0.0182zm-11.299 0.26298-11.934 7.3746v4.6763l11.934 7.3749v-5.5271l-7.2529-4.1723 7.2529-4.1671zm12.033 0.17555v5.4477l7.2526 4.1671-7.2526 4.1727v5.5268l11.933-7.3749v-4.6763l-11.753-7.263z" fill="#d485e6" stroke-width=".29315"/>
<path d="m49.935 39.267a2.2978 2.4813 0 0 1-2e-5 0.01197l-2.2978-0.01197z" fill="#fff" stroke-width=".17905"/>
</g>
</g>
</g>
<g transform="matrix(4.1806 0 0 3.9712 -147.08 -119.57)" font-family="'Syamala Ramana'" font-size="3.5795px" font-weight="bold" stroke-width=".12203">
<text x="37.713741" y="48.768394" fill="#ff00ff" xml:space="preserve"><tspan x="37.713741" y="48.768394" fill="#ff00ff" font-family="Dhurjati" font-size="3.5795px" font-weight="normal" stroke-width=".12203">SoftwareExplorer</tspan></text>
<text x="37.669682" y="48.973351" fill="#ff00ff" xml:space="preserve"><tspan x="37.669682" y="48.973351" fill="#ff00ff" font-family="Dhurjati" font-size="3.5795px" font-weight="normal" stroke-width=".12203">SoftwareExplorer</tspan></text>
<text x="37.750214" y="48.93478" fill="#ff00ff" xml:space="preserve"><tspan x="37.750214" y="48.93478" fill="#ff00ff" font-family="Dhurjati" font-size="3.5795px" font-weight="normal" stroke-width=".12203">SoftwareExplorer</tspan></text>
<text x="37.625198" y="48.830235" fill="#ff00ff" xml:space="preserve"><tspan x="37.625198" y="48.830235" fill="#ff00ff" font-family="Dhurjati" font-size="3.5795px" font-weight="normal" stroke-width=".12203">SoftwareExplorer</tspan></text>
<text x="37.636093" y="48.757629" fill="#ff00ff" xml:space="preserve"><tspan x="37.636093" y="48.757629" fill="#ff00ff" font-family="Dhurjati" font-size="3.5795px" font-weight="normal" stroke-width=".12203">SoftwareExplorer</tspan></text>
<text x="37.626507" y="48.946491" fill="#ff00ff" xml:space="preserve"><tspan x="37.626507" y="48.946491" fill="#ff00ff" font-family="Dhurjati" font-size="3.5795px" font-weight="normal" stroke-width=".12203">SoftwareExplorer</tspan></text>
<text x="37.777569" y="48.798412" fill="#ff00ff" xml:space="preserve"><tspan x="37.777569" y="48.798412" fill="#ff00ff" font-family="Dhurjati" font-size="3.5795px" font-weight="normal" stroke-width=".12203">SoftwareExplorer</tspan></text>
<text x="37.776596" y="48.853199" fill="#ff00ff" xml:space="preserve"><tspan x="37.776596" y="48.853199" fill="#ff00ff" font-family="Dhurjati" font-size="3.5795px" font-weight="normal" stroke-width=".12203">SoftwareExplorer</tspan></text>
<text x="37.739399" y="48.953823" fill="#ff00ff" xml:space="preserve"><tspan x="37.739399" y="48.953823" fill="#ff00ff" font-family="Dhurjati" font-size="3.5795px" font-weight="normal" stroke-width=".12203">SoftwareExplorer</tspan></text>
<text x="37.754005" y="48.730789" fill="#ff00ff" xml:space="preserve"><tspan x="37.754005" y="48.730789" fill="#ff00ff" font-family="Dhurjati" font-size="3.5795px" font-weight="normal" stroke-width=".12203">SoftwareExplorer</tspan></text>
<text x="37.751583" y="48.999012" fill="#ff00ff" xml:space="preserve"><tspan x="37.751583" y="48.999012" fill="#ff00ff" font-family="Dhurjati" font-size="3.5795px" font-weight="normal" stroke-width=".12203">SoftwareExplorer</tspan></text>
<text x="37.684452" y="48.787418" fill="#ffffff" xml:space="preserve"><tspan x="37.684452" y="48.787418" fill="#ffffff" font-family="Dhurjati" font-size="3.5795px" font-weight="normal" stroke-width=".12203">SoftwareExplorer</tspan></text>
</g>
</g>
</svg>
